<?xml version="1.0" standalone="no"?>
<!DOCTYPE svg PUBLIC "-//W3C//DTD SVG 20010904//EN"
 "http://www.w3.org/TR/2001/REC-SVG-20010904/DTD/svg10.dtd">
<svg version="1.0" xmlns="http://www.w3.org/2000/svg"
 width="128.000000pt" height="128.000000pt" viewBox="0 0 128.000000 128.000000"
 preserveAspectRatio="xMidYMid meet">

<g transform="translate(0.000000,128.000000) scale(0.100000,-0.100000)"
fill="#000000" stroke="none">
<path d="M95 1266 c-41 -18 -83 -69 -90 -109 -3 -18 -5 -262 -3 -544 3 -499 4
-512 24 -539 11 -15 33 -37 48 -48 26 -20 43 -21 292 -24 l264 -3 0 241 0 240
-90 0 -90 0 0 105 0 105 89 0 88 0 6 119 c4 99 9 130 30 174 44 97 120 137
259 137 144 0 138 4 138 -101 l0 -89 -71 0 c-65 0 -73 -2 -100 -29 -28 -28
-29 -33 -29 -120 l0 -91 95 0 95 0 -1 -27 c0 -16 -6 -62 -12 -103 l-12 -75
-82 -3 -83 -3 0 -240 0 -240 159 3 c174 3 187 7 235 72 21 27 21 38 21 566 0
528 0 539 -21 566 -11 15 -33 37 -48 48 -27 21 -40 21 -554 23 -423 2 -533 0
-557 -11z"/>
</g>
</svg>
