<?xml version="1.0" standalone="no"?>
<!DOCTYPE svg PUBLIC "-//W3C//DTD SVG 20010904//EN"
 "http://www.w3.org/TR/2001/REC-SVG-20010904/DTD/svg10.dtd">
<svg version="1.0" xmlns="http://www.w3.org/2000/svg"
 width="128.000000pt" height="128.000000pt" viewBox="0 0 128.000000 128.000000"
 preserveAspectRatio="xMidYMid meet">

<g transform="translate(0.000000,128.000000) scale(0.100000,-0.100000)"
fill="#000000" stroke="none">
<path d="M560 1150 c-175 -27 -321 -132 -405 -291 -115 -218 -76 -470 99 -645
218 -218 557 -221 776 -5 217 213 224 558 16 774 -125 130 -312 194 -486 167z
m233 -259 c61 -10 96 -36 125 -91 20 -40 22 -58 22 -205 0 -147 -2 -165 -22
-205 -43 -82 -52 -85 -278 -85 -186 0 -200 1 -227 21 -62 46 -68 71 -68 269 0
162 2 183 20 214 27 46 66 73 117 82 60 9 253 9 311 0z"/>
<path d="M451 826 c-45 -25 -50 -49 -51 -231 0 -240 5 -245 240 -245 235 0
240 5 240 248 l0 174 -34 34 -34 34 -168 0 c-121 -1 -176 -4 -193 -14z m377
-67 c3 -28 -16 -43 -42 -33 -38 14 -22 68 18 62 14 -2 22 -12 24 -29z m-118
-28 c19 -10 46 -33 58 -52 20 -28 23 -43 20 -92 -4 -51 -9 -63 -41 -94 -32
-32 -43 -37 -94 -40 -68 -5 -111 16 -143 69 -78 128 68 280 200 209z"/>
<path d="M604 691 c-30 -13 -64 -59 -64 -88 0 -106 149 -141 190 -44 32 78
-50 164 -126 132z"/>
</g>
</svg>
