<?xml version="1.0" standalone="no"?>
<!DOCTYPE svg PUBLIC "-//W3C//DTD SVG 20010904//EN"
 "http://www.w3.org/TR/2001/REC-SVG-20010904/DTD/svg10.dtd">
<svg version="1.0" xmlns="http://www.w3.org/2000/svg"
 width="128.000000pt" height="128.000000pt" viewBox="0 0 128.000000 128.000000"
 preserveAspectRatio="xMidYMid meet">

<g transform="translate(0.000000,128.000000) scale(0.100000,-0.100000)"
fill="#000000" stroke="none">
<path d="M501 1265 c-110 -24 -226 -89 -311 -175 -253 -253 -253 -647 0 -900
251 -252 648 -252 900 0 253 252 253 647 0 901 -155 155 -374 220 -589 174z
m397 -383 c28 -21 32 -21 73 -7 23 8 44 13 46 11 2 -2 -9 -18 -24 -36 l-28
-33 33 6 c40 8 41 -4 2 -36 -26 -22 -31 -36 -40 -99 -13 -96 -65 -202 -130
-266 -122 -120 -316 -155 -472 -85 l-63 28 61 6 c93 9 200 69 122 69 -21 0
-98 69 -98 89 0 6 15 11 33 11 l32 1 -30 13 c-34 15 -85 70 -85 91 0 7 -3 21
-7 30 -5 15 -1 16 26 10 l32 -7 -25 36 c-32 48 -40 88 -26 131 l12 35 51 -46
c60 -54 106 -79 184 -99 80 -21 83 -20 83 21 0 88 75 158 161 151 26 -2 60
-13 77 -25z"/>
</g>
</svg>
